<?xml version="1.0" encoding="utf-8"?>
<!-- Generator: Adobe Illustrator 24.0.0, SVG Export Plug-In . SVG Version: 6.00 Build 0)  -->
<svg version="1.1" id="OBJECTS" xmlns="http://www.w3.org/2000/svg" xmlns:xlink="http://www.w3.org/1999/xlink" x="0px" y="0px"
	 viewBox="0 0 719.91 500" style="enable-background:new 0 0 719.91 500;" xml:space="preserve">
<style type="text/css">
	.st0{fill:#DBD9D9;}
	.st1{fill:#E1F9FF;}
	.st2{fill:#5DAFBA;}
	.st3{fill:#B4DBFC;}
	.st4{fill:#B5D6F7;}
	.st5{fill:#CBF4F7;}
	.st6{fill:#ABE5FF;}
	.st7{fill:none;stroke:#FFFFFF;stroke-width:3.2821;stroke-linecap:round;stroke-linejoin:round;stroke-miterlimit:10;}
	.st8{opacity:0.02;clip-path:url(#XMLID_8_);fill:#3B3B3B;}
	.st9{clip-path:url(#XMLID_8_);fill:#96E5ED;}
	.st10{clip-path:url(#XMLID_8_);fill:#3B3B3B;}
	.st11{clip-path:url(#XMLID_11_);fill:#96E5ED;}
	.st12{clip-path:url(#XMLID_11_);fill:#3B3B3B;}
	.st13{opacity:0.3;clip-path:url(#XMLID_12_);fill:#379FD3;}
	.st14{clip-path:url(#XMLID_12_);fill:#3B3B3B;}
	.st15{fill:#70CEEF;}
	.st16{fill:#B3B3B3;}
	.st17{clip-path:url(#XMLID_15_);}
	.st18{fill:#989998;}
	.st19{opacity:0.2;clip-path:url(#XMLID_16_);}
	.st20{fill:#1C1C1C;}
	.st21{opacity:0.3;clip-path:url(#XMLID_18_);fill:#5B5B5B;}
	.st22{opacity:0.3;clip-path:url(#XMLID_19_);fill:#5B5B5B;}
	.st23{opacity:0.3;clip-path:url(#XMLID_20_);fill:#5B5B5B;}
	.st24{opacity:0.3;clip-path:url(#XMLID_21_);fill:#5B5B5B;}
	.st25{clip-path:url(#XMLID_22_);}
	.st26{opacity:0.2;clip-path:url(#XMLID_23_);}
	.st27{opacity:0.3;clip-path:url(#XMLID_43_);fill:#5B5B5B;}
	.st28{opacity:0.3;clip-path:url(#XMLID_44_);fill:#5B5B5B;}
	.st29{opacity:0.3;clip-path:url(#XMLID_45_);fill:#5B5B5B;}
	.st30{opacity:0.3;clip-path:url(#XMLID_46_);fill:#5B5B5B;}
	.st31{clip-path:url(#XMLID_47_);}
	.st32{fill:none;stroke:#39BAD8;stroke-width:3.1418;stroke-linecap:round;stroke-linejoin:round;stroke-miterlimit:10;}
	.st33{opacity:0.4;clip-path:url(#XMLID_48_);fill:#D8A083;}
	.st34{fill:none;stroke:#3793CC;stroke-width:3.1418;stroke-linecap:round;stroke-linejoin:round;stroke-miterlimit:10;}
	.st35{clip-path:url(#XMLID_49_);fill:#E5AC87;}
	.st36{opacity:0.1;clip-path:url(#XMLID_49_);fill:#973F46;}
	.st37{clip-path:url(#XMLID_49_);fill:#DDA486;}
	.st38{opacity:0.4;clip-path:url(#XMLID_50_);fill:#D8A083;}
	.st39{opacity:0.05;clip-path:url(#XMLID_51_);fill:#89594B;}
	.st40{fill:#AD4745;}
	.st41{fill:#E5AC87;}
	.st42{fill:#232321;}
	.st43{fill:none;stroke:#282523;stroke-width:1.2695;stroke-linecap:round;stroke-linejoin:round;stroke-miterlimit:10;}
	.st44{fill:none;stroke:#FFFFFF;stroke-width:0.3927;stroke-miterlimit:10;}
	
		.st45{clip-path:url(#XMLID_52_);fill:none;stroke:#E0E0E0;stroke-width:0.0982;stroke-linecap:round;stroke-linejoin:round;stroke-miterlimit:10;stroke-dasharray:0.1964,0.1964,0;}
	.st46{clip-path:url(#XMLID_52_);}
	.st47{opacity:0.3;clip-path:url(#XMLID_52_);fill:none;stroke:#FFFFFF;stroke-width:1.9636;stroke-miterlimit:10;}
	.st48{clip-path:url(#XMLID_54_);fill:none;stroke:#4EDADD;stroke-miterlimit:10;}
	.st49{opacity:0.1;fill:#D9D9D9;}
	.st50{opacity:0.5;}
	.st51{fill:#F3F3F3;}
	.st52{fill:none;stroke:#FFFFFF;stroke-width:0.3927;stroke-linecap:round;stroke-linejoin:round;stroke-miterlimit:10;}
	.st53{opacity:0.4;clip-path:url(#XMLID_55_);}
	.st54{fill:#302D2B;}
	.st55{opacity:0.5;clip-path:url(#XMLID_56_);fill:#4EA4E5;}
	.st56{opacity:0.3;clip-path:url(#XMLID_56_);}
	.st57{fill:#FBFBFB;}
	.st58{fill:#DBA385;}
	.st59{clip-path:url(#XMLID_47_);fill:#3B3B3B;}
	.st60{fill:#2179AA;}
	.st61{opacity:0.3;clip-path:url(#XMLID_57_);fill:#379FD3;}
	.st62{clip-path:url(#XMLID_58_);}
	.st63{opacity:0.3;clip-path:url(#XMLID_59_);fill:none;stroke:#1C2533;stroke-miterlimit:10;}
	.st64{opacity:0.3;clip-path:url(#XMLID_59_);fill:#FFFFFF;}
	.st65{opacity:0.3;clip-path:url(#XMLID_60_);fill:none;stroke:#1C2533;stroke-miterlimit:10;}
	.st66{opacity:0.3;clip-path:url(#XMLID_60_);fill:#FFFFFF;}
	.st67{fill:#FFFFFF;}
	.st68{fill:#36B8EA;}
	.st69{fill:#30A9E5;}
	.st70{opacity:0.02;clip-path:url(#XMLID_61_);fill:#0A100B;}
	.st71{opacity:0.02;clip-path:url(#XMLID_62_);fill:#0A100B;}
	.st72{opacity:0.02;clip-path:url(#XMLID_63_);fill:#0A100B;}
	.st73{opacity:0.02;clip-path:url(#XMLID_64_);fill:#0A100B;}
</style>
<ellipse class="st0" cx="342.2" cy="446.34" rx="127.83" ry="9.2"/>
<path class="st1" d="M403.96,137.59c-7.33-28.3-28.03-54.32-54.62-66.72c-20.59-9.61-44.68-11.49-66.51-5.2
	c-16.81,4.84-32.57,14.77-42.08,29.46c-16.98,26.23-3.42,54.89,4.51,81.68c4.6,15.53,7,32.78,0.33,47.55
	c-13.93,30.86-54.45,36.72-74.3,62.55c-25.67,33.4-46.49,78.71-12.6,115.16c31.83,34.23,80.58,22.79,111.58-5.53
	c23.69-21.65,57.15-37.1,89.77-31.88c31.93,5.1,56.03,29.07,80.98,47.58c35.67,26.46,88,15.67,116.7-16.07
	c29.81-32.96,33.27-102.05-3.9-131.26c-15.8-12.41-34.82-14.13-53.84-17.4c-26.67-4.59-70.61-14.91-84.54-40.89
	c-11.18-20.83-5.74-45.5-11.15-67.73C404.18,138.45,404.07,138.02,403.96,137.59z"/>
<path class="st2" d="M612.72,422.82h-27.78c2.01-1.11,3.39-3.22,3.39-5.68v-48.11c0-3.59-2.91-6.5-6.5-6.5h-34.94
	c-3.59,0-6.5-2.91-6.5-6.5v-37.95c0-3.59-2.91-6.5-6.5-6.5h-17.33c-3.59,0-6.5,2.91-6.5,6.5v15.82c0,3.59-2.91,6.5-6.5,6.5h-32.08
	c-3.59,0-6.5,2.91-6.5,6.5v70.24c0,2.46,1.38,4.57,3.39,5.68h-6.78c2.01-1.11,3.39-3.22,3.39-5.68v-36.4c0-3.59-2.91-6.5-6.5-6.5
	h-28.18c-3.59,0-6.5-2.91-6.5-6.5v-38.26c0-3.59-2.91-6.5-6.5-6.5h-36.19c-3.59,0-6.5,2.91-6.5,6.5v13.55c0,3.59-2.91,6.5-6.5,6.5
	h-7.02c-3.59,0-6.5,2.91-6.5,6.5s-2.91,6.5-6.5,6.5H313.1c-3.59,0-6.5-2.91-6.5-6.5v-37.95c0-3.59-2.91-6.5-6.5-6.5h-17.33
	c-3.59,0-6.5,2.91-6.5,6.5v15.82c0,3.59-2.91,6.5-6.5,6.5h-32.08c-3.59,0-6.5,2.91-6.5,6.5v70.24c0,2.46,1.38,4.57,3.39,5.68h-6.78
	c2.01-1.11,3.39-3.22,3.39-5.68v-36.4c0-3.59-2.91-6.5-6.5-6.5h-28.18c-3.59,0-6.5-2.91-6.5-6.5v-38.26c0-3.59-2.91-6.5-6.5-6.5
	h-36.19c-3.59,0-6.5,2.91-6.5,6.5v13.55c0,3.59-2.91,6.5-6.5,6.5h-7.02c-3.59,0-6.5,2.91-6.5,6.5v61.11c0,2.46,1.38,4.57,3.39,5.68
	h-24.2c-0.8,0-1.44,0.64-1.44,1.44c0,0.8,0.64,1.44,1.44,1.44h512.77c0.8,0,1.44-0.65,1.44-1.44
	C614.16,423.47,613.51,422.82,612.72,422.82z"/>
<g>
	<path class="st3" d="M445.85,183.45h109.43c-0.16-6.49,0.67-12.38-5.21-16.54c-4.61-3.26-10.97-4.36-14.32,0.86
		c-4.81-6.64-6.66-15.33-14.18-20.32c-8.63-5.73-21.03-4.24-26.7,4.59c-2.39-2.24-3.57-5.84-6.32-7.94
		c-5.21-3.97-12.99-2.24-17.97,1.67c-6.82,5.35-6.44,15.85-6.78,23.7C455.06,161.63,444.23,171.6,445.85,183.45z"/>
	<path class="st3" d="M102.47,227.41H211.9c-0.16-6.49,0.67-12.38-5.21-16.54c-4.61-3.26-10.97-4.36-14.32,0.86
		c-4.81-6.64-6.66-15.33-14.18-20.32c-8.63-5.73-21.03-4.24-26.7,4.59c-2.39-2.24-3.57-5.84-6.32-7.94
		c-5.21-3.97-12.99-2.24-17.97,1.67c-6.82,5.35-6.44,15.85-6.78,23.7C111.68,205.59,100.85,215.56,102.47,227.41z"/>
</g>
<g>
	<circle class="st4" cx="422.41" cy="120.53" r="5.79"/>
	<circle class="st4" cx="191" cy="148.11" r="11.86"/>
	
		<ellipse transform="matrix(0.7071 -0.7071 0.7071 0.7071 -4.5822 425.1298)" class="st4" cx="510.89" cy="218.1" rx="10.4" ry="10.4"/>
</g>
<g>
	<circle class="st5" cx="294.4" cy="94.38" r="5.79"/>
	<path class="st5" d="M389.9,170.64c0-2.42-1.96-4.39-4.39-4.39c-2.42,0-4.39,1.96-4.39,4.39c0,2.42,1.96,4.39,4.39,4.39
		C387.93,175.03,389.9,173.07,389.9,170.64z"/>
	<path class="st5" d="M273.53,190.14c0-2.42-1.96-4.39-4.39-4.39c-2.42,0-4.39,1.96-4.39,4.39c0,2.42,1.96,4.39,4.39,4.39
		C271.56,194.53,273.53,192.56,273.53,190.14z"/>
</g>
<g>
	<path class="st6" d="M297.98,202.3H211.7c-0.43,0-0.79-0.35-0.79-0.79s0.35-0.79,0.79-0.79h86.28c0.44,0,0.79,0.35,0.79,0.79
		S298.41,202.3,297.98,202.3z"/>
	<path class="st6" d="M306.92,212.31h-51.05c-0.44,0-0.79-0.35-0.79-0.79c0-0.44,0.35-0.79,0.79-0.79h51.05
		c0.44,0,0.79,0.35,0.79,0.79C307.71,211.96,307.36,212.31,306.92,212.31z"/>
	<path class="st6" d="M185.39,382.79h-67.37c-0.43,0-0.79-0.35-0.79-0.79c0-0.44,0.35-0.79,0.79-0.79h67.37
		c0.44,0,0.79,0.35,0.79,0.79C186.18,382.44,185.83,382.79,185.39,382.79z"/>
	<path class="st6" d="M141.12,370.35H90.07c-0.43,0-0.79-0.35-0.79-0.79c0-0.43,0.35-0.79,0.79-0.79h51.05
		c0.43,0,0.79,0.35,0.79,0.79C141.91,370,141.55,370.35,141.12,370.35z"/>
	<path class="st6" d="M459.71,298.77h-32.93c-0.44,0-0.79-0.35-0.79-0.79c0-0.44,0.35-0.79,0.79-0.79h32.93
		c0.43,0,0.79,0.35,0.79,0.79C460.5,298.42,460.14,298.77,459.71,298.77z"/>
	<path class="st6" d="M450.68,287.13h-57.11c-0.44,0-0.79-0.35-0.79-0.79c0-0.44,0.35-0.79,0.79-0.79h57.11
		c0.43,0,0.79,0.35,0.79,0.79C451.47,286.78,451.12,287.13,450.68,287.13z"/>
	<path class="st6" d="M284.4,228.62h-68.98c-0.44,0-0.79-0.35-0.79-0.79c0-0.44,0.35-0.79,0.79-0.79h68.98
		c0.44,0,0.79,0.35,0.79,0.79C285.19,228.27,284.84,228.62,284.4,228.62z"/>
	<path class="st6" d="M150.09,395.45H81.1c-0.44,0-0.79-0.35-0.79-0.79c0-0.44,0.35-0.79,0.79-0.79h68.98
		c0.44,0,0.79,0.35,0.79,0.79C150.88,395.1,150.52,395.45,150.09,395.45z"/>
</g>
<g>
	<line class="st7" x1="310.7" y1="232.21" x2="404.96" y2="232.21"/>
	<line class="st7" x1="322.84" y1="251.14" x2="404.96" y2="251.14"/>
	<line class="st7" x1="342.36" y1="270.07" x2="404.96" y2="270.07"/>
</g>
<g>
	<defs>
		<path id="XMLID_38_" d="M384.92,405.53H207.93V271.67c0-8.91,7.22-16.13,16.13-16.13h144.73c8.91,0,16.13,7.22,16.13,16.13V405.53
			z"/>
	</defs>
	<use xlink:href="#XMLID_38_"  style="overflow:visible;fill:#50AEEF;"/>
	<clipPath id="XMLID_8_">
		<use xlink:href="#XMLID_38_"  style="overflow:visible;"/>
	</clipPath>
	<path class="st8" d="M207.45,254.05c0,0,40.82,153.11,152,160l-181,1L207.45,254.05z"/>
	<path class="st9" d="M209.45,411.55L209.45,411.55c-3.85,0-7-3.15-7-7v-31c0-3.85,3.15-7,7-7l0,0c3.85,0,7,3.15,7,7v31
		C216.45,408.4,213.3,411.55,209.45,411.55z"/>
	<circle class="st10" cx="254.45" cy="415.39" r="37"/>
</g>
<g>
	<defs>
		<path id="XMLID_36_" d="M384.45,295.05h64.12c5,0,9.74,2.2,12.97,6.01l45.9,54.24c2.59,3.07,4.05,6.94,4.11,10.95l0.64,42.43
			c0.15,9.59-7.51,17.48-17.09,17.63l-111.64,1.73L384.45,295.05z"/>
	</defs>
	<use xlink:href="#XMLID_36_"  style="overflow:visible;fill:#50AEEF;"/>
	<clipPath id="XMLID_11_">
		<use xlink:href="#XMLID_36_"  style="overflow:visible;"/>
	</clipPath>
	<path class="st11" d="M524.78,409.39h-26c-3.67,0-6.67-3-6.67-6.67l0,0c0-3.67,3-6.67,6.67-6.67h26c3.67,0,6.67,3,6.67,6.67l0,0
		C531.45,406.39,528.45,409.39,524.78,409.39z"/>
	<circle class="st12" cx="441.45" cy="415.39" r="37"/>
</g>
<g>
	<defs>
		<path id="XMLID_37_" d="M383.45,428.05h-178.5c-6.35,0-11.5-5.15-11.5-11.5l0,0c0-6.35,5.15-11.5,11.5-11.5h178.5V428.05z"/>
	</defs>
	<use xlink:href="#XMLID_37_"  style="overflow:visible;fill:#2179AA;"/>
	<clipPath id="XMLID_12_">
		<use xlink:href="#XMLID_37_"  style="overflow:visible;"/>
	</clipPath>
	<rect x="192.45" y="423.05" class="st13" width="190" height="8"/>
	<circle class="st14" cx="254.45" cy="415.39" r="37"/>
</g>
<g>
	<path class="st16" d="M273.32,412.94l-2.34-5.53l-7.73,3.27c-2.1,0.89-4.4-0.8-4.17-3.07l0.82-8.35l-5.97-0.58l-0.64,6.54
		c-0.24,2.46-3.18,3.6-5.02,1.94l-4.88-4.4l-4.02,4.45l6.72,6.07c1.64,1.48,1.18,4.16-0.85,5.01l-8.34,3.53l2.34,5.53l7.73-3.27
		c2.1-0.89,4.4,0.8,4.17,3.07l-0.82,8.35l5.97,0.58l0.64-6.54c0.24-2.46,3.18-3.6,5.02-1.94l4.88,4.4l4.02-4.45l-6.72-6.07
		c-1.64-1.48-1.18-4.16,0.85-5.01L273.32,412.94z"/>
	<g>
		<defs>
			<path id="XMLID_26_" d="M277.84,407.05c-5.59-13.04-20.69-19.07-33.73-13.48c-13.04,5.59-19.07,20.69-13.48,33.73
				c5.59,13.04,20.69,19.07,33.73,13.48C277.4,435.19,283.43,420.09,277.84,407.05z M261.17,433.35c-8.93,3.83-19.27-0.3-23.1-9.23
				c-3.83-8.93,0.3-19.27,9.23-23.1c8.93-3.83,19.27,0.3,23.1,9.23C274.23,419.17,270.1,429.52,261.17,433.35z"/>
		</defs>
		<use xlink:href="#XMLID_26_"  style="overflow:visible;fill:#A2A4A3;"/>
		<clipPath id="XMLID_15_">
			<use xlink:href="#XMLID_26_"  style="overflow:visible;"/>
		</clipPath>
		<g class="st17">
			<path class="st18" d="M276.33,408.74c-1.73-4.02-4.47-7.29-7.81-9.64c2.19,2.08,4.01,4.62,5.28,7.57
				c4.97,11.58-0.39,25-11.98,29.97c-7.56,3.24-15.9,2.08-22.16-2.33c6.41,6.07,16.06,8.11,24.69,4.4
				C275.94,433.74,281.3,420.32,276.33,408.74z"/>
		</g>
	</g>
	<g>
		<g>
			<defs>
				<path id="XMLID_25_" d="M283.94,404.44c-7.04-16.4-26.04-23.99-42.44-16.96s-23.99,26.04-16.96,42.44
					c7.04,16.4,26.04,23.99,42.44,16.96C283.38,439.84,290.97,420.84,283.94,404.44z M263.09,437.99
					c-11.31,4.85-24.41-0.38-29.27-11.7c-4.85-11.31,0.38-24.41,11.7-29.27c11.31-4.85,24.41,0.38,29.27,11.7
					C279.63,420.03,274.4,433.14,263.09,437.99z"/>
			</defs>
			<use xlink:href="#XMLID_25_"  style="overflow:visible;fill:#5B5B5B;"/>
			<clipPath id="XMLID_16_">
				<use xlink:href="#XMLID_25_"  style="overflow:visible;"/>
			</clipPath>
			<g class="st19">
				<path class="st20" d="M285.1,405.24c-2.01-4.69-5.01-8.66-8.63-11.77c2.1,2.44,3.86,5.23,5.2,8.34
					c7.04,16.4-0.56,35.4-16.96,42.44c-11.71,5.02-24.74,2.59-33.8-5.19c8.95,10.41,23.95,14.32,37.24,8.62
					C284.55,440.64,292.14,421.64,285.1,405.24z"/>
			</g>
		</g>
	</g>
	<g>
		<defs>
			<path id="XMLID_24_" d="M256.67,413.31c0,0.95-0.77,1.72-1.72,1.72c-0.95,0-1.72-0.77-1.72-1.72c0-0.95,0.77-1.72,1.72-1.72
				C255.9,411.59,256.67,412.36,256.67,413.31z"/>
		</defs>
		<use xlink:href="#XMLID_24_"  style="overflow:visible;fill:#717071;"/>
		<clipPath id="XMLID_18_">
			<use xlink:href="#XMLID_24_"  style="overflow:visible;"/>
		</clipPath>
		<path class="st21" d="M256.2,411.88c0.12,0.25,0.19,0.53,0.19,0.83c0,1.07-0.87,1.95-1.95,1.95c-0.58,0-1.09-0.26-1.45-0.66
			c0.31,0.66,0.98,1.12,1.75,1.12c1.07,0,1.95-0.87,1.95-1.95C256.7,412.67,256.51,412.22,256.2,411.88z"/>
	</g>
	<g>
		<defs>
			<path id="XMLID_27_" d="M256.67,421.46c0,0.95-0.77,1.72-1.72,1.72c-0.95,0-1.72-0.77-1.72-1.72c0-0.95,0.77-1.72,1.72-1.72
				C255.9,419.74,256.67,420.51,256.67,421.46z"/>
		</defs>
		<use xlink:href="#XMLID_27_"  style="overflow:visible;fill:#717071;"/>
		<clipPath id="XMLID_19_">
			<use xlink:href="#XMLID_27_"  style="overflow:visible;"/>
		</clipPath>
		<path class="st22" d="M256.2,420.03c0.12,0.25,0.19,0.53,0.19,0.83c0,1.07-0.87,1.95-1.95,1.95c-0.58,0-1.09-0.26-1.45-0.66
			c0.31,0.66,0.98,1.12,1.75,1.12c1.07,0,1.95-0.87,1.95-1.95C256.7,420.82,256.51,420.38,256.2,420.03z"/>
	</g>
	<g>
		<defs>
			<path id="XMLID_29_" d="M258.55,419.19c-0.95,0-1.72-0.77-1.72-1.72c0-0.95,0.77-1.72,1.72-1.72c0.95,0,1.72,0.77,1.72,1.72
				C260.26,418.43,259.49,419.19,258.55,419.19z"/>
		</defs>
		<use xlink:href="#XMLID_29_"  style="overflow:visible;fill:#717071;"/>
		<clipPath id="XMLID_20_">
			<use xlink:href="#XMLID_29_"  style="overflow:visible;"/>
		</clipPath>
		<path class="st23" d="M259.97,418.72c-0.25,0.12-0.53,0.19-0.83,0.19c-1.07,0-1.95-0.87-1.95-1.95c0-0.58,0.26-1.09,0.66-1.45
			c-0.66,0.31-1.12,0.98-1.12,1.75c0,1.08,0.87,1.95,1.95,1.95C259.18,419.22,259.63,419.03,259.97,418.72z"/>
	</g>
	<g>
		<defs>
			<path id="XMLID_28_" d="M251.18,419.19c-0.95,0-1.72-0.77-1.72-1.72c0-0.95,0.77-1.72,1.72-1.72c0.95,0,1.72,0.77,1.72,1.72
				C252.9,418.43,252.13,419.19,251.18,419.19z"/>
		</defs>
		<use xlink:href="#XMLID_28_"  style="overflow:visible;fill:#717071;"/>
		<clipPath id="XMLID_21_">
			<use xlink:href="#XMLID_28_"  style="overflow:visible;"/>
		</clipPath>
		<path class="st24" d="M252.61,418.72c-0.25,0.12-0.53,0.19-0.83,0.19c-1.08,0-1.95-0.87-1.95-1.95c0-0.58,0.26-1.09,0.66-1.45
			c-0.66,0.31-1.12,0.98-1.12,1.75c0,1.08,0.87,1.95,1.95,1.95C251.82,419.22,252.27,419.03,252.61,418.72z"/>
	</g>
</g>
<g>
	<path class="st16" d="M460.32,412.94l-2.34-5.53l-7.73,3.27c-2.1,0.89-4.4-0.8-4.17-3.07l0.82-8.35l-5.97-0.58l-0.64,6.54
		c-0.24,2.46-3.18,3.6-5.02,1.94l-4.88-4.4l-4.02,4.45l6.72,6.07c1.64,1.48,1.18,4.16-0.85,5.01l-8.34,3.53l2.34,5.53l7.73-3.27
		c2.1-0.89,4.4,0.8,4.17,3.07l-0.82,8.35l5.97,0.58l0.64-6.54c0.24-2.46,3.18-3.6,5.02-1.94l4.88,4.4l4.02-4.45l-6.72-6.07
		c-1.64-1.48-1.18-4.16,0.85-5.01L460.32,412.94z"/>
	<g>
		<defs>
			<path id="XMLID_35_" d="M464.84,407.05c-5.59-13.04-20.69-19.07-33.73-13.48c-13.04,5.59-19.07,20.69-13.48,33.73
				c5.59,13.04,20.69,19.07,33.73,13.48C464.4,435.19,470.43,420.09,464.84,407.05z M448.17,433.35c-8.93,3.83-19.27-0.3-23.1-9.23
				c-3.83-8.93,0.3-19.27,9.23-23.1c8.93-3.83,19.27,0.3,23.1,9.23C461.23,419.17,457.1,429.52,448.17,433.35z"/>
		</defs>
		<use xlink:href="#XMLID_35_"  style="overflow:visible;fill:#A2A4A3;"/>
		<clipPath id="XMLID_22_">
			<use xlink:href="#XMLID_35_"  style="overflow:visible;"/>
		</clipPath>
		<g class="st25">
			<path class="st18" d="M463.33,408.74c-1.73-4.02-4.47-7.29-7.81-9.64c2.19,2.08,4.01,4.62,5.28,7.57
				c4.97,11.58-0.39,25-11.98,29.97c-7.56,3.24-15.9,2.08-22.16-2.33c6.41,6.07,16.06,8.11,24.69,4.4
				C462.94,433.74,468.3,420.32,463.33,408.74z"/>
		</g>
	</g>
	<g>
		<g>
			<defs>
				<path id="XMLID_34_" d="M470.94,404.44c-7.04-16.4-26.04-23.99-42.44-16.96s-23.99,26.04-16.96,42.44
					c7.04,16.4,26.04,23.99,42.44,16.96C470.38,439.84,477.97,420.84,470.94,404.44z M450.09,437.99
					c-11.31,4.85-24.41-0.38-29.27-11.7c-4.85-11.31,0.38-24.41,11.7-29.27c11.31-4.85,24.41,0.38,29.27,11.7
					C466.63,420.03,461.4,433.14,450.09,437.99z"/>
			</defs>
			<use xlink:href="#XMLID_34_"  style="overflow:visible;fill:#5B5B5B;"/>
			<clipPath id="XMLID_23_">
				<use xlink:href="#XMLID_34_"  style="overflow:visible;"/>
			</clipPath>
			<g class="st26">
				<path class="st20" d="M472.1,405.24c-2.01-4.69-5.01-8.66-8.63-11.77c2.1,2.44,3.86,5.23,5.2,8.34
					c7.04,16.4-0.56,35.4-16.96,42.44c-11.71,5.02-24.74,2.59-33.8-5.19c8.95,10.41,23.95,14.32,37.24,8.62
					C471.55,440.64,479.14,421.64,472.1,405.24z"/>
			</g>
		</g>
	</g>
	<g>
		<defs>
			<path id="XMLID_33_" d="M443.67,413.31c0,0.95-0.77,1.72-1.72,1.72c-0.95,0-1.72-0.77-1.72-1.72c0-0.95,0.77-1.72,1.72-1.72
				C442.9,411.59,443.67,412.36,443.67,413.31z"/>
		</defs>
		<use xlink:href="#XMLID_33_"  style="overflow:visible;fill:#717071;"/>
		<clipPath id="XMLID_43_">
			<use xlink:href="#XMLID_33_"  style="overflow:visible;"/>
		</clipPath>
		<path class="st27" d="M443.2,411.88c0.12,0.25,0.19,0.53,0.19,0.83c0,1.07-0.87,1.95-1.95,1.95c-0.58,0-1.09-0.26-1.45-0.66
			c0.31,0.66,0.98,1.12,1.75,1.12c1.07,0,1.95-0.87,1.95-1.95C443.7,412.67,443.51,412.22,443.2,411.88z"/>
	</g>
	<g>
		<defs>
			<path id="XMLID_32_" d="M443.67,421.46c0,0.95-0.77,1.72-1.72,1.72c-0.95,0-1.72-0.77-1.72-1.72c0-0.95,0.77-1.72,1.72-1.72
				C442.9,419.74,443.67,420.51,443.67,421.46z"/>
		</defs>
		<use xlink:href="#XMLID_32_"  style="overflow:visible;fill:#717071;"/>
		<clipPath id="XMLID_44_">
			<use xlink:href="#XMLID_32_"  style="overflow:visible;"/>
		</clipPath>
		<path class="st28" d="M443.2,420.03c0.12,0.25,0.19,0.53,0.19,0.83c0,1.07-0.87,1.95-1.95,1.95c-0.58,0-1.09-0.26-1.45-0.66
			c0.31,0.66,0.98,1.12,1.75,1.12c1.07,0,1.95-0.87,1.95-1.95C443.7,420.82,443.51,420.38,443.2,420.03z"/>
	</g>
	<g>
		<defs>
			<path id="XMLID_31_" d="M445.55,419.19c-0.95,0-1.72-0.77-1.72-1.72c0-0.95,0.77-1.72,1.72-1.72c0.95,0,1.72,0.77,1.72,1.72
				C447.26,418.43,446.49,419.19,445.55,419.19z"/>
		</defs>
		<use xlink:href="#XMLID_31_"  style="overflow:visible;fill:#717071;"/>
		<clipPath id="XMLID_45_">
			<use xlink:href="#XMLID_31_"  style="overflow:visible;"/>
		</clipPath>
		<path class="st29" d="M446.97,418.72c-0.25,0.12-0.53,0.19-0.83,0.19c-1.07,0-1.95-0.87-1.95-1.95c0-0.58,0.26-1.09,0.66-1.45
			c-0.66,0.31-1.12,0.98-1.12,1.75c0,1.08,0.87,1.95,1.95,1.95C446.18,419.22,446.63,419.03,446.97,418.72z"/>
	</g>
	<g>
		<defs>
			<path id="XMLID_30_" d="M438.18,419.19c-0.95,0-1.72-0.77-1.72-1.72c0-0.95,0.77-1.72,1.72-1.72c0.95,0,1.72,0.77,1.72,1.72
				C439.9,418.43,439.13,419.19,438.18,419.19z"/>
		</defs>
		<use xlink:href="#XMLID_30_"  style="overflow:visible;fill:#717071;"/>
		<clipPath id="XMLID_46_">
			<use xlink:href="#XMLID_30_"  style="overflow:visible;"/>
		</clipPath>
		<path class="st30" d="M439.61,418.72c-0.25,0.12-0.53,0.19-0.83,0.19c-1.08,0-1.95-0.87-1.95-1.95c0-0.58,0.26-1.09,0.66-1.45
			c-0.66,0.31-1.12,0.98-1.12,1.75c0,1.08,0.87,1.95,1.95,1.95C438.82,419.22,439.27,419.03,439.61,418.72z"/>
	</g>
</g>
<g>
	<defs>
		<path id="XMLID_1_" d="M397.99,359.39h97.45l-44-52l-53.53,0.57c-3.95,0.04-7.14,3.26-7.14,7.21v37
			C390.78,356.16,394.01,359.39,397.99,359.39z"/>
	</defs>
	<use xlink:href="#XMLID_1_"  style="overflow:visible;fill:#DCF0F1;"/>
	<clipPath id="XMLID_47_">
		<use xlink:href="#XMLID_1_"  style="overflow:visible;"/>
	</clipPath>
	<g class="st31">
		<path class="st32" d="M463.63,353.49c0,0,7.27,1.96,7.07,8.44"/>
		<g id="elements">
			<g id="element_1_">
				<g>
					<defs>
						<path id="XMLID_17_" d="M430.25,345.22c0.14,2.5,2.13,4.76,3.31,6.96l4.36,7.39c1.97,4.16,4.41,3.98,8.38,3.13l13.7-4.17
							l1.64-3.34l0.46-0.27c-18.32,6.97-21.03-0.61-22.14-3.58c-0.2-0.54-0.68-1.41-0.85-1.96l0,0c-0.66-1.46-0.9-1.31-1.41-2.83
							c-0.76-2.3-1.92-5.7-5.34-5.83C430.33,340.65,430.1,342.45,430.25,345.22z"/>
					</defs>
					<use xlink:href="#XMLID_17_"  style="overflow:visible;fill:#D39D80;"/>
					<clipPath id="XMLID_48_">
						<use xlink:href="#XMLID_17_"  style="overflow:visible;"/>
					</clipPath>
					<path class="st33" d="M462,358.03c-18.82,5.71-20.21,6.52-26.26-4.6c-1.83-3.36-4.08-8.94-3.37-12.7v0L428,343.2l9.8,16.79
						c1.27,4.33,4.79,4.81,7.37,3.31l17.03-4.82L462,358.03L462,358.03z"/>
				</g>
			</g>
			<line class="st34" x1="465" y1="349.96" x2="461" y2="360.54"/>
			<g>
				<defs>
					<path id="XMLID_121_" d="M422.78,369.59c-1.3-0.29-0.97-2.49-0.94-3.82c0.11-4.48-1.71-14.07,2.35-20.97
						c0.75-1.28,2.74-4.68,4.64-5.34c1.11-0.39,1.49-2.97,1.96-4.66l6.81,3.46c0,0-1.76,1.18-0.26,4.32
						c1.7,3.56,0.39,12.81,0.39,12.81s1.88,9.52,0.14,15.46c-0.28,0.95-1.29,2.21-2.26,2.02L422.78,369.59z"/>
				</defs>
				<use xlink:href="#XMLID_121_"  style="overflow:visible;fill:#3793CC;"/>
				<clipPath id="XMLID_49_">
					<use xlink:href="#XMLID_121_"  style="overflow:visible;"/>
				</clipPath>
				<path class="st35" d="M427.61,339.39c5.25-0.5,5.09,0.75,11.47,3.5c0.92,0.39,2.9-2.56,2.9-2.56l-6.44-7.04l-7.23-0.94
					L427.61,339.39z"/>
				<path class="st36" d="M429.74,347.68c0,0,3.98,12.96,7.53,16.81c3.83,4.15,13.49-1.29,13.49-1.29l-10.61-2.47L429.74,347.68z"/>
				<path id="XMLID_131_" class="st37" d="M445.99,320.04c-1.16,19.78-1.41,22.16-10.15,19.41c-8.63-2.71-13.17-7.3-15.25-19.13
					c-1.98-11.25,3.1-11.01,10.8-11.51C444.49,307.96,446.3,314.84,445.99,320.04z"/>
				<path class="st36" d="M428.83,339.47c0,0-5.42,0.67-5.94,20.57l-1.76,11.51l-2.94-2.55C418.19,369,418.84,339.89,428.83,339.47z
					"/>
			</g>
			<g id="element_12_">
				<g>
					<defs>
						<path id="XMLID_120_" d="M430.98,347.6c0.14,2.5,1.09,3.47,2.27,5.67l4.36,7.39c1.97,4.16,4.41,3.98,8.38,3.13l13.7-4.17
							l1.64-3.34l0.46-0.27c-13.09,2.89-16.7,3.75-18.35,1.05c-3.48-5.71-3.33-4.28-3.5-4.83l-1.1-5.3c-0.66-1.46,0.5,1.52,0,0
							c-0.76-2.3-1.52-3.04-4.94-3.17C431.87,343.68,430.83,344.83,430.98,347.6z"/>
					</defs>
					<use xlink:href="#XMLID_120_"  style="overflow:visible;fill:#E5AC87;"/>
					<clipPath id="XMLID_50_">
						<use xlink:href="#XMLID_120_"  style="overflow:visible;"/>
					</clipPath>
					<path class="st38" d="M461.69,359.12c-18.82,5.71-20.21,6.52-26.26-4.6c-1.83-3.36-4.08-8.94-3.37-12.7v0l-4.36,2.47l9.8,16.79
						c1.27,4.33,4.79,4.81,7.37,3.31l17.03-4.82L461.69,359.12L461.69,359.12z"/>
				</g>
			</g>
			<g>
				<g>
					<g>
						<g>
							<g>
								<defs>
									<path id="XMLID_129_" d="M443.14,314.12c1.55,1.78,2.39,4.09,2.44,6.45c0.3,16.18-0.02,21.93-9.63,18.13
										c-6.95-2.75-11.84-4.87-13.41-16.77c-0.36-2.71,0.86-9.94,8.49-11.14C437.52,309.76,441.14,311.81,443.14,314.12z"/>
								</defs>
								<use xlink:href="#XMLID_129_"  style="overflow:visible;fill:#E5AC87;"/>
								<clipPath id="XMLID_51_">
									<use xlink:href="#XMLID_129_"  style="overflow:visible;"/>
								</clipPath>
								<path class="st39" d="M453.63,296.17c0,0,9.01,47.17-16.56,49.16c0,0,18.59,3.13,21.73-7.49
									C461.94,327.23,468.3,294.52,453.63,296.17z"/>
							</g>
						</g>
					</g>
				</g>
				<path class="st41" d="M444.99,328.12c0,0,2.3,4.27,1.93,4.79c-0.49,0.68-3.03,0.8-3.03,0.8"/>
				<g>
					<path class="st42" d="M443.52,328.96c-0.05,1.06-0.75,1.89-1.55,1.85s-1.41-0.93-1.36-1.99c0.05-1.06,0.75-1.89,1.55-1.85
						C442.97,327.01,443.57,327.9,443.52,328.96z"/>
				</g>
				<path class="st41" d="M430.09,329.7c0.33-1.72,1.89-2.86,3.47-2.55c1.58,0.31,2.6,1.95,2.27,3.66
					c-0.33,1.72-1.89,2.86-3.47,2.55C430.77,333.05,429.76,331.41,430.09,329.7z"/>
				<path class="st43" d="M439.62,325.71c0,0,1.48-1.52,3.58-0.77"/>
			</g>
			<path class="st44" d="M438.68,337.66L438.68,337.66c-3.29-0.49-6.64-1.59-10.49-3.97"/>
			<g>
				<defs>
					<path id="XMLID_13_" d="M437.45,332.02c0,0,8.77-0.75,8.87-1.72c0.09-0.88,2.12,3.6,0.15,7.43c-0.37,0.72-1.93,1.94-2.74,1.82
						l-5.22-1.69L437.45,332.02z"/>
				</defs>
				<use xlink:href="#XMLID_13_"  style="overflow:visible;fill:#F8F8F8;"/>
				<clipPath id="XMLID_52_">
					<use xlink:href="#XMLID_13_"  style="overflow:visible;"/>
				</clipPath>
				<path class="st45" d="M437.8,332.38c0,0,9.42-1.01,9.51-1.88c0.08-0.79,2.04,3.25,0.28,6.68c-0.33,0.65-2.1,2.48-2.82,2.37
					l-6.1-1.89L437.8,332.38z"/>
				<g class="st46">
					<defs>
						<path id="XMLID_14_" d="M438.12,332.69c0,0,9.77-1.12,9.84-1.97c0.06-0.77,2.16,3.67,0.25,7.01
							c-0.36,0.63-1.92,1.92-2.77,1.82l-6.49-2.04L438.12,332.69z"/>
					</defs>
					<use xlink:href="#XMLID_14_"  style="overflow:visible;fill:#EBEBEB;"/>
					<clipPath id="XMLID_53_">
						<use xlink:href="#XMLID_14_"  style="overflow:visible;"/>
					</clipPath>
				</g>
				<path class="st47" d="M437.25,334.32c0,0,8.15-0.07,11.9-1.85"/>
				<path class="st47" d="M437.52,337.41c0,0,8.15-0.07,11.9-1.85"/>
			</g>
			<path class="st41" d="M458.57,359.87c0,0,2.41-0.98,4.4,0.02c0.28,0.14,0.64,0.02,0.7-0.29c0.03-0.15-0.02-0.34-0.24-0.54
				c-0.66-0.63-3.59-1.07-3.59-1.07"/>
			<path class="st41" d="M459.17,358.35c0,0,3.04,0,4,0.57c0.27,0.16,0.64,0.02,0.7-0.29c0.03-0.15-0.02-0.34-0.24-0.54
				c-0.66-0.63-3.81-1.03-3.81-1.03"/>
			<path class="st41" d="M460.19,357.72c0,0,2.27-0.15,3.32,0.25c0.29,0.11,0.64-0.09,0.64-0.4c0-0.16-0.08-0.33-0.32-0.49
				c-0.76-0.51-3.72-0.44-3.72-0.44"/>
			<path class="st41" d="M460.21,357.41c0,0,2.18-0.63,3.29-0.47c0.31,0.05,0.6-0.22,0.54-0.53c-0.03-0.15-0.15-0.3-0.42-0.41
				c-0.85-0.33-3.73,0.37-3.73,0.37"/>
			<path class="st41" d="M458.64,356.61c0,0,1.43-0.52,2.02-1.36c0.58-0.84,1.24,0.7,0.25,1.11"/>
			<g>
				<defs>
					<path id="XMLID_10_" d="M433.26,354.89c-0.93,0.28-1.92-0.07-2.3-0.81c-1.48-2.86-4.57-10.37,1.58-12.07
						c6.05-1.67,7.38,6.09,8.25,9.13c0.24,0.83-0.35,1.71-1.33,2L433.26,354.89z"/>
				</defs>
				<use xlink:href="#XMLID_10_"  style="overflow:visible;fill:#50AEEF;"/>
				<clipPath id="XMLID_54_">
					<use xlink:href="#XMLID_10_"  style="overflow:visible;"/>
				</clipPath>
				<line class="st48" x1="426.78" y1="354.55" x2="443.78" y2="349.72"/>
				<line class="st48" x1="426.78" y1="352.55" x2="443.78" y2="347.72"/>
			</g>
			<g>
				<path class="st49" d="M214.56,215.65c0.02-0.43,0.04-0.87,0.08-1.3c0.95-10.72,8.65-19.22,18.54-21.68
					c2.42-11.87,13.42-20.28,25.77-19.18c1.25,0.11,2.47,0.33,3.65,0.62c-3.47-2.6-7.67-4.31-12.3-4.72
					c-12.35-1.1-23.35,7.32-25.77,19.18c-9.89,2.47-17.59,10.96-18.54,21.68c-0.04,0.44-0.07,0.87-0.08,1.3
					c-0.39,10.82,7.28,19.95,17.43,22.36C217.82,229.7,214.29,223.08,214.56,215.65z"/>
				<g class="st50">
					<path class="st51" d="M283.8,237.27c11.37,0,21.14-8.65,21.91-20c0.03-0.4,0.04-0.8,0.05-1.21
						c0.19-9.69-5.46-18.48-13.88-22.57c5.3,4.66,8.56,11.53,8.42,18.93c-0.01,0.41-0.03,0.81-0.05,1.21
						c-0.77,11.35-5.57,21.52-35.93,24.55"/>
				</g>
			</g>
		</g>
		<path class="st41" d="M429.22,333.95c-1.57,0-2.85-1.27-2.85-2.85s1.27-2.85,2.85-2.85"/>
		<g>
			<defs>
				<path id="XMLID_9_" d="M422.45,319.97c0,0-0.63,7.98,2.67,12.46c0.32,0.43,0.93,0.51,1.32,0.15c0.91-0.82,2.4-2.4,2.75-4.22
					c0.19-1.01,0.62-1.96,1.34-2.7c0.31-0.31,0.65-0.57,0.99-0.65c1.19-0.27,3.15,0.08,5.11-0.1c2.02-0.18,7.27-1.37,7.76-4.12
					C444.88,318.05,422.45,319.97,422.45,319.97z"/>
			</defs>
			<use xlink:href="#XMLID_9_"  style="overflow:visible;fill:#282523;"/>
			<clipPath id="XMLID_55_">
				<use xlink:href="#XMLID_9_"  style="overflow:visible;"/>
			</clipPath>
			<g class="st53">
				<path class="st54" d="M424.74,320.31c-1.4,0.08-2.29,0.14-2.29,0.14s-0.96,8.33,2.33,12.81c0.32,0.43,0.93,0.51,1.32,0.15
					c0.27-0.25,0.6-0.57,0.93-0.94C424.32,328.65,424.59,322.17,424.74,320.31z"/>
			</g>
		</g>
		<g>
			<defs>
				<path id="XMLID_2_" d="M449.83,317.34c-1.1-0.43-2.49-0.75-4.26-0.87c-0.93-2.87-3.48-6.66-10.49-7.3
					c-6.96-0.64-13.22,3.66-13.71,10.63c-0.01,0.18-0.02,1.42-0.02,1.42l5.5-0.32c5.37-0.31,10.75,0.26,15.94,1.69
					c1.78,0.49,3.72,0.88,5.65,0.99C452.12,323.78,453.28,318.7,449.83,317.34z"/>
			</defs>
			<use xlink:href="#XMLID_2_"  style="overflow:visible;fill:#50AEEF;"/>
			<clipPath id="XMLID_56_">
				<use xlink:href="#XMLID_2_"  style="overflow:visible;"/>
			</clipPath>
			<path class="st55" d="M422.95,320.67c0.45-6.48,5.88-11.39,12.23-11.54c-0.25-0.03-0.5-0.06-0.76-0.08
				c-6.96-0.64-13.21,4.52-13.7,11.5c-0.01,0.18-0.02,0.37-0.03,0.56l2.24-0.13C422.94,320.86,422.94,320.76,422.95,320.67z"/>
			<g class="st56">
				<path class="st57" d="M446.55,316.53c-0.93-2.87-3.48-6.66-10.49-7.3c-1.14-0.1-2.26-0.05-3.34,0.14
					c0.58-0.03,1.17-0.02,1.77,0.04c7.01,0.64,9.56,4.43,10.49,7.3"/>
			</g>
		</g>
		<path class="st58" d="M429.3,334.12c-1.57,0-3.26-1.31-3.26-2.88c0-1.57,1.27-2.85,2.85-2.85"/>
		<path class="st41" d="M429.35,328.26c-1.57,0-2.85,1.27-2.85,2.85s1.27,2.85,2.85,2.85"/>
		<path class="st52" d="M438.49,332.48l-9.16-3.34c0,0-1.37-0.56-2.32,0"/>
	</g>
	<path class="st59" d="M416.61,375.05L416.61,375.05c-3.58,0-6.5-2.92-6.5-6.5v-27c0-3.57,2.92-6.5,6.5-6.5l0,0
		c3.58,0,6.5,2.93,6.5,6.5v27C423.11,372.13,420.19,375.05,416.61,375.05z"/>
</g>
<path class="st60" d="M480.37,366.99c7.86,0,14.3-3.46,14.3-7.69v-8.02c0-4.23-6.43-7.69-14.3-7.69V366.99z"/>
<g>
	<defs>
		<path id="XMLID_40_" d="M476.45,427.05l34.8-0.45c5.53,0,10.05-4.52,10.05-10.05l0,0c0-5.53-4.52-10.05-10.05-10.05l-32.93,0.3
			C478.32,406.8,480.95,422.93,476.45,427.05z"/>
	</defs>
	<use xlink:href="#XMLID_40_"  style="overflow:visible;fill:#2179AA;"/>
	<clipPath id="XMLID_57_">
		<use xlink:href="#XMLID_40_"  style="overflow:visible;"/>
	</clipPath>
	<rect x="403.45" y="422.05" class="st61" width="190" height="8"/>
</g>
<g>
	<defs>
		<rect id="XMLID_39_" x="227.04" y="274.15" width="137.99" height="85.5"/>
	</defs>
	<use xlink:href="#XMLID_39_"  style="overflow:visible;opacity:0.3;fill:#FFFFFF;"/>
	<clipPath id="XMLID_58_">
		<use xlink:href="#XMLID_39_"  style="overflow:visible;opacity:0.3;"/>
	</clipPath>
	<g class="st62">
		<defs>
			<rect id="XMLID_41_" x="247.43" y="307.05" width="43.54" height="43.54"/>
		</defs>
		<use xlink:href="#XMLID_41_"  style="overflow:visible;fill:#2179AA;"/>
		<clipPath id="XMLID_59_">
			<use xlink:href="#XMLID_41_"  style="overflow:visible;"/>
		</clipPath>
		<line class="st63" x1="269.2" y1="326.05" x2="269.2" y2="355.8"/>
		<rect x="261.86" y="305.05" class="st64" width="14.67" height="20.67"/>
	</g>
	<g class="st62">
		<defs>
			<rect id="XMLID_42_" x="300.76" y="307.05" width="43.54" height="43.54"/>
		</defs>
		<use xlink:href="#XMLID_42_"  style="overflow:visible;fill:#2179AA;"/>
		<clipPath id="XMLID_60_">
			<use xlink:href="#XMLID_42_"  style="overflow:visible;"/>
		</clipPath>
		<line class="st65" x1="322.53" y1="326.05" x2="322.53" y2="355.8"/>
		<rect x="315.2" y="305.05" class="st66" width="14.67" height="20.67"/>
	</g>
</g>
<g>
	<path class="st67" d="M239.83,296.58h-2.26v-4.62h-4.24v4.62h-2.27v-10.71h2.27v4.2h4.24v-4.2h2.26V296.58z"/>
	<path class="st67" d="M253.6,291.21c0,1.77-0.44,3.13-1.32,4.09c-0.88,0.95-2.14,1.43-3.78,1.43s-2.9-0.48-3.78-1.43
		c-0.88-0.95-1.32-2.32-1.32-4.1s0.44-3.14,1.32-4.08c0.88-0.94,2.15-1.41,3.79-1.41s2.9,0.47,3.78,1.42
		C253.17,288.07,253.6,289.43,253.6,291.21z M245.79,291.21c0,1.2,0.23,2.1,0.68,2.7s1.13,0.91,2.04,0.91c1.81,0,2.72-1.2,2.72-3.61
		c0-2.41-0.9-3.62-2.7-3.62c-0.9,0-1.58,0.3-2.04,0.91C246.02,289.11,245.79,290.01,245.79,291.21z"/>
	<path class="st67" d="M264.57,289.21c0,1.15-0.36,2.03-1.08,2.64c-0.72,0.61-1.75,0.92-3.07,0.92h-0.97v3.81h-2.27v-10.71h3.42
		c1.3,0,2.29,0.28,2.96,0.84C264.23,287.27,264.57,288.1,264.57,289.21z M259.44,290.91h0.75c0.7,0,1.22-0.14,1.57-0.41
		c0.35-0.28,0.52-0.68,0.52-1.2c0-0.53-0.15-0.93-0.44-1.18c-0.29-0.25-0.75-0.38-1.37-0.38h-1.03V290.91z"/>
	<path class="st67" d="M267.94,296.58v-10.71h2.27v8.83h4.34v1.88H267.94z"/>
	<path class="st67" d="M287.48,291.21c0,1.77-0.44,3.13-1.32,4.09c-0.88,0.95-2.14,1.43-3.78,1.43s-2.9-0.48-3.78-1.43
		c-0.88-0.95-1.32-2.32-1.32-4.1s0.44-3.14,1.32-4.08c0.88-0.94,2.14-1.41,3.79-1.41s2.9,0.47,3.78,1.42
		C287.05,288.07,287.48,289.43,287.48,291.21z M279.67,291.21c0,1.2,0.23,2.1,0.68,2.7s1.13,0.91,2.04,0.91
		c1.81,0,2.72-1.2,2.72-3.61c0-2.41-0.9-3.62-2.7-3.62c-0.9,0-1.58,0.3-2.04,0.91C279.9,289.11,279.67,290.01,279.67,291.21z"/>
	<path class="st67" d="M300.55,296.58h-2.89l-4.66-8.1h-0.07c0.09,1.43,0.14,2.45,0.14,3.06v5.04h-2.03v-10.71h2.86l4.65,8.02h0.05
		c-0.07-1.39-0.11-2.38-0.11-2.95v-5.07h2.04V296.58z"/>
	<path class="st67" d="M308.66,290.56h4.25v5.55c-0.69,0.22-1.34,0.38-1.94,0.47c-0.61,0.09-1.23,0.14-1.86,0.14
		c-1.62,0-2.85-0.47-3.7-1.42c-0.85-0.95-1.28-2.31-1.28-4.09c0-1.73,0.49-3.08,1.48-4.04c0.99-0.97,2.36-1.45,4.11-1.45
		c1.1,0,2.16,0.22,3.18,0.66l-0.75,1.82c-0.78-0.39-1.59-0.59-2.44-0.59c-0.98,0-1.77,0.33-2.36,0.99s-0.89,1.55-0.89,2.66
		c0,1.16,0.24,2.05,0.71,2.66c0.48,0.61,1.17,0.92,2.08,0.92c0.47,0,0.95-0.05,1.44-0.15v-2.23h-2.03V290.56z"/>
	<path class="st67" d="M320.94,296.58h-2.27v-8.82h-2.91v-1.89h8.09v1.89h-2.91V296.58z"/>
	<path class="st67" d="M333.01,296.58h-6.17v-10.71h6.17v1.86h-3.9v2.35h3.63v1.86h-3.63v2.76h3.9V296.58z"/>
	<path class="st67" d="M341.15,287.6c-0.86,0-1.52,0.32-1.99,0.96c-0.47,0.64-0.7,1.54-0.7,2.68c0,2.39,0.9,3.58,2.69,3.58
		c0.75,0,1.66-0.19,2.73-0.56v1.9c-0.88,0.37-1.86,0.55-2.94,0.55c-1.56,0-2.75-0.47-3.57-1.42c-0.83-0.95-1.24-2.3-1.24-4.07
		c0-1.11,0.2-2.09,0.61-2.93c0.41-0.84,0.99-1.48,1.75-1.93c0.76-0.45,1.65-0.67,2.67-0.67c1.04,0,2.08,0.25,3.13,0.75l-0.73,1.85
		c-0.4-0.19-0.8-0.36-1.21-0.5S341.53,287.6,341.15,287.6z"/>
	<path class="st67" d="M356.28,296.58h-2.26v-4.62h-4.24v4.62h-2.27v-10.71h2.27v4.2h4.24v-4.2h2.26V296.58z"/>
</g>
<rect x="223.57" y="274.43" class="st68" width="6.5" height="88.5"/>
<rect x="361.53" y="274.05" class="st68" width="6.5" height="88.5"/>
<rect x="223.55" y="272.05" class="st69" width="144.27" height="7"/>
<rect x="223.57" y="357.55" class="st69" width="144.51" height="7"/>
<g>
	<defs>
		<path id="XMLID_3_" d="M365.98,360.94c0,0.69-0.56,1.25-1.25,1.25c-0.69,0-1.25-0.56-1.25-1.25s0.56-1.25,1.25-1.25
			C365.42,359.69,365.98,360.25,365.98,360.94z"/>
	</defs>
	<use xlink:href="#XMLID_3_"  style="overflow:visible;fill:#36B8EA;"/>
	<clipPath id="XMLID_61_">
		<use xlink:href="#XMLID_3_"  style="overflow:visible;"/>
	</clipPath>
	<path class="st70" d="M365.35,359.86c0.16,0.21,0.26,0.47,0.26,0.76c0,0.69-0.56,1.25-1.25,1.25c-0.23,0-0.44-0.07-0.62-0.17
		c0.23,0.3,0.58,0.49,0.99,0.49c0.69,0,1.25-0.56,1.25-1.25C365.98,360.48,365.73,360.08,365.35,359.86z"/>
</g>
<g>
	<defs>
		<circle id="XMLID_4_" cx="364.45" cy="275.93" r="1.25"/>
	</defs>
	<use xlink:href="#XMLID_4_"  style="overflow:visible;fill:#36B8EA;"/>
	<clipPath id="XMLID_62_">
		<use xlink:href="#XMLID_4_"  style="overflow:visible;"/>
	</clipPath>
	<path class="st71" d="M365.07,274.85c0.16,0.21,0.26,0.47,0.26,0.76c0,0.69-0.56,1.25-1.25,1.25c-0.23,0-0.44-0.07-0.62-0.17
		c0.23,0.3,0.58,0.49,0.99,0.49c0.69,0,1.25-0.56,1.25-1.25C365.7,275.47,365.44,275.07,365.07,274.85z"/>
</g>
<g>
	<defs>
		<circle id="XMLID_6_" cx="227.48" cy="360.94" r="1.25"/>
	</defs>
	<use xlink:href="#XMLID_6_"  style="overflow:visible;fill:#36B8EA;"/>
	<clipPath id="XMLID_63_">
		<use xlink:href="#XMLID_6_"  style="overflow:visible;"/>
	</clipPath>
	<path class="st72" d="M228.1,359.86c0.16,0.21,0.26,0.47,0.26,0.76c0,0.69-0.56,1.25-1.25,1.25c-0.23,0-0.44-0.07-0.62-0.17
		c0.23,0.3,0.58,0.49,0.99,0.49c0.69,0,1.25-0.56,1.25-1.25C228.73,360.48,228.47,360.08,228.1,359.86z"/>
</g>
<g>
	<defs>
		<circle id="XMLID_5_" cx="227.2" cy="275.93" r="1.25"/>
	</defs>
	<use xlink:href="#XMLID_5_"  style="overflow:visible;fill:#36B8EA;"/>
	<clipPath id="XMLID_64_">
		<use xlink:href="#XMLID_5_"  style="overflow:visible;"/>
	</clipPath>
	<path class="st73" d="M227.82,274.85c0.16,0.21,0.26,0.47,0.26,0.76c0,0.69-0.56,1.25-1.25,1.25c-0.23,0-0.44-0.07-0.62-0.17
		c0.23,0.3,0.58,0.49,0.99,0.49c0.69,0,1.25-0.56,1.25-1.25C228.45,275.47,228.19,275.07,227.82,274.85z"/>
</g>
</svg>
